<?xml version="1.0" encoding="UTF-8"?>
<svg width="48px" height="48px" viewBox="0 0 48 48" version="1.1" xmlns="http://www.w3.org/2000/svg" xmlns:xlink="http://www.w3.org/1999/xlink">
    <!-- Generator: Sketch 45.2 (43514) - http://www.bohemiancoding.com/sketch -->
    <title>Database</title>
    <desc>Created with Sketch.</desc>
    <defs></defs>
    <g id="Tweek-icons" stroke="none" stroke-width="1" fill="none" fill-rule="evenodd">
        <g id="Database" stroke="#FFFFFF" stroke-width="2">
            <path d="M32.2698571,30.9127143 C32.2698571,32.447 28.6279524,33.6903333 24.1350952,33.6903333 C19.6422381,33.6903333 15.9998571,32.447 15.9998571,30.9127143 L15.9998571,16.7779524 C15.9998571,15.2436667 19.6422381,13.9998571 24.1350952,13.9998571 C28.6279524,13.9998571 32.2698571,15.2436667 32.2698571,16.7779524 L32.2698571,30.9127143 Z" id="Stroke-1"></path>
            <path d="M32.2698571,26.2263333 C32.2698571,27.760619 28.6279524,29.0039524 24.1350952,29.0039524 C19.6422381,29.0039524 15.9998571,27.760619 15.9998571,26.2263333" id="Stroke-3"></path>
            <path d="M32.2698571,21.5399524 C32.2698571,23.0742381 28.6279524,24.3175714 24.1350952,24.3175714 C19.6422381,24.3175714 15.9998571,23.0742381 15.9998571,21.5399524" id="Stroke-5"></path>
            <path d="M32.2698571,16.967381 C32.2698571,18.5016667 28.6279524,19.745 24.1350952,19.745 C19.6422381,19.745 15.9998571,18.5016667 15.9998571,16.967381 C15.9998571,15.4330952 19.6422381,14.1897619 24.1350952,14.1897619 C28.6279524,14.1897619 32.2698571,15.4330952 32.2698571,16.967381 Z" id="Stroke-7"></path>
        </g>
    </g>
</svg>