<?xml version="1.0" encoding="UTF-8" standalone="no"?>
<svg width="133px" height="31px" viewBox="0 0 133 31" version="1.1" xmlns="http://www.w3.org/2000/svg" xmlns:xlink="http://www.w3.org/1999/xlink">
    <!-- Generator: Sketch 41.2 (35397) - http://www.bohemiancoding.com/sketch -->
    <title>Tweek logo </title>
    <desc>Created with Sketch.</desc>
    <defs></defs>
    <g id="Symbols" stroke="none" stroke-width="1" fill="none" fill-rule="evenodd">
        <g id="Tweek-logo-">
            <g id="Tweek-logo-Copy">
                <path d="M20.9710925,0.941560227 L2.58501206,0.941560227 C1.1387206,0.941560227 -0.000133668342,2.25149305 -0.000133668342,3.72244977 L-0.000133668342,4.14980856 C-0.000133668342,5.62076529 1.1387206,7.05639187 2.58501206,7.05639187 L9.1427809,7.05639187 L8.78588643,27.3725803 C8.78588643,28.7171638 10.024992,29.7009723 11.3616754,29.7009723 L11.3616754,29.6934986 C12.6983588,29.6934986 14.1693789,28.7212404 14.1693789,27.3759774 L14.525605,7.05639187 L20.9710925,7.05639187 C22.4173839,7.05639187 23.3918261,5.62076529 23.3918261,4.14980856 L23.3918261,3.72244977 C23.3918261,2.25149305 22.4173839,0.941560227 20.9710925,0.941560227" id="Fill-1" fill="#FFFFFF"></path>
                <path d="M81.0185874,7.05639187 C82.576492,7.05639187 83.5429141,5.57660262 83.5429141,3.99286122 L83.5429141,3.97587558 C83.5429141,2.39145475 82.576492,0.941560227 81.0185874,0.941560227 L65.3092156,0.941560227 C65.1889141,0.941560227 65.2477281,1.03464155 65.1314367,1.04958892 C63.7466327,1.13383771 62.8243211,2.38262222 62.8243211,3.81213397 L62.8243211,26.9995756 C62.8243211,28.4297668 63.7466327,29.8212307 65.1314367,29.9061589 C65.2477281,29.9204268 65.1889141,30.156867 65.3092156,30.156867 L81.0185874,30.156867 C82.576492,30.156867 83.5429141,28.4202548 83.5429141,26.8365134 L83.5429141,26.8195278 C83.5429141,25.2357864 82.576492,24.0420353 81.0185874,24.0420353 L67.5027131,24.0420353 L67.5027131,17.9272037 L74.7903111,17.9272037 C76.352894,17.9272037 77.5278387,17.0208498 77.5278387,15.4323524 L77.5278387,15.4513763 C77.5278387,13.8628789 76.352894,12.4917978 74.7903111,12.4917978 L67.5027131,12.4917978 L67.5027131,7.05639187 L81.0185874,7.05639187 Z" id="Fill-4" fill="#FFFFFF"></path>
                <path d="M103.957278,29.7047092 L88.247906,29.7047092 C86.6893332,29.7047092 85.4261673,28.4205945 85.4261673,26.8368531 L85.4261673,26.8198675 C85.4261673,25.2354466 86.6893332,23.951332 88.247906,23.951332 L103.957278,23.951332 C105.515182,23.951332 106.778348,25.2354466 106.778348,26.8198675 L106.778348,26.8368531 C106.778348,28.4205945 105.515182,29.7047092 103.957278,29.7047092" id="Fill-6" fill="#00506D"></path>
                <path d="M103.236137,18.300684 L88.2559261,18.300684 C86.6933432,18.300684 85.4261673,17.0124928 85.4261673,15.4239954 L85.4261673,15.4239954 C85.4261673,13.8354981 86.6933432,12.5473069 88.2559261,12.5473069 L103.236137,12.5473069 C104.79872,12.5473069 106.065896,13.8354981 106.065896,15.4239954 L106.065896,15.4239954 C106.065896,17.0124928 104.79872,18.300684 103.236137,18.300684" id="Fill-8" fill="#00506D"></path>
                <path d="M103.957278,6.86085315 L88.247906,6.86085315 C86.6893332,6.86085315 85.4261673,5.5767385 85.4261673,3.9929971 L85.4261673,3.97601146 C85.4261673,2.39159064 86.6893332,1.10747599 88.247906,1.10747599 L103.957278,1.10747599 C105.515182,1.10747599 106.778348,2.39159064 106.778348,3.97601146 L106.778348,3.9929971 C106.778348,5.5767385 105.515182,6.86085315 103.957278,6.86085315" id="Fill-12" fill="#FFFFFF"></path>
                <path d="M103.957278,6.86085315 L88.247906,6.86085315 C86.6893332,6.86085315 85.4261673,5.5767385 85.4261673,3.9929971 L85.4261673,3.97601146 C85.4261673,2.39159064 86.6893332,1.10747599 88.247906,1.10747599 L103.957278,1.10747599 C105.515182,1.10747599 106.778348,2.39159064 106.778348,3.97601146 L106.778348,3.9929971 C106.778348,5.5767385 105.515182,6.86085315 103.957278,6.86085315" id="Fill-14" fill="#00506D"></path>
                <path d="M60.0159492,4.09076647 C60.0159492,2.66465184 58.7848638,1.62105391 57.3820146,1.62105391 L56.803899,1.62105391 C55.4003814,1.62105391 54.1358789,2.5525466 54.1358789,3.97866122 L54.1358789,19.7875393 C54.1358789,21.9977112 52.0379543,23.7458737 49.7395271,23.7458737 C47.3769392,23.7458737 45.4474367,21.8176634 45.4474367,19.5782762 L45.4474367,3.68582873 C45.4474367,2.2597141 44.567899,0.94162817 43.1650497,0.94162817 L42.5862658,0.94162817 C41.1834166,0.94162817 39.4323613,2.2597141 39.4323613,3.68582873 L39.4323613,19.589147 C39.4323613,21.8285342 37.8430447,23.724132 35.4811251,23.724132 C33.1185372,23.724132 31.2879492,21.8006778 31.2879492,19.5612905 L31.3140146,4.09076647 C31.3140146,2.66465184 30.3415774,1.62105391 28.9387281,1.62105391 L28.3599442,1.62105391 C26.957095,1.62105391 25.3971854,2.5525466 25.3971854,3.97866122 L25.3971854,19.6047738 L25.3971854,19.611568 C25.3971854,19.611568 25.6244216,20.36641 25.6518236,20.5186014 C26.1163211,25.559261 30.4832658,29.5209924 35.656899,29.5209924 C38.4432156,29.5209924 41.0163312,28.3707247 42.8228588,26.5233661 C44.6300548,28.3707247 47.177105,29.5209924 49.9627533,29.5209924 C55.1811653,29.5209924 59.6035824,25.5667346 60.0052558,20.4635679 C60.0166176,20.3745631 60.0159492,4.09076647 60.0159492,4.09076647" id="Fill-20" fill="#FFFFFF"></path>
                <path d="M122.896612,12.760103 L131.394576,6.20568291 C132.734602,5.20149166 132.941119,3.3942192 131.854395,2.16921459 L131.843034,2.15630551 C130.756978,0.930621473 128.589546,0.751253078 127.248853,1.75612375 L114.954707,11.0846391 L114.954707,3.53350148 C114.954707,2.19163564 113.751024,1.10319561 112.021355,1.10319561 C110.291019,1.10319561 108.987752,2.19163564 108.987752,3.53350148 L109.039883,27.2563306 C109.039883,28.5988758 110.467461,29.6866364 112.197129,29.6866364 C113.927466,29.6866364 115.342345,28.5988758 115.342345,27.2563306 L115.34836,18.5773462 L118.051134,16.4949063 L126.833813,28.5139476 C127.757461,29.8524163 129.6883,30.2505598 131.145953,29.4033159 L131.161993,29.3938039 C132.620315,28.54656 133.053401,26.7746177 132.130421,25.436149 L122.896612,12.760103 Z" id="Fill-22" fill="#FFFFFF"></path>
                <path d="M102.134376,26.8280885 C102.134376,28.4743371 100.821753,29.8094087 99.2023608,29.8094087 C97.5823005,29.8094087 96.2696774,28.4743371 96.2696774,26.8280885 C96.2696774,25.18184 97.5823005,23.8467684 99.2023608,23.8467684 C100.821753,23.8467684 102.134376,25.18184 102.134376,26.8280885" id="Fill-29" fill="#FFFFFF"></path>
                <path d="M102.134376,3.87960095 C102.134376,5.52584951 100.821753,6.86092109 99.2023608,6.86092109 C97.5823005,6.86092109 96.2696774,5.52584951 96.2696774,3.87960095 C96.2696774,2.23335238 97.5823005,0.898280808 99.2023608,0.898280808 C100.821753,0.898280808 102.134376,2.23335238 102.134376,3.87960095" id="Fill-24" fill="#FFFFFF"></path>
                <path d="M94.2974678,15.5645007 C94.2974678,17.2107492 92.9848447,18.5458208 91.3654528,18.5458208 C89.7453925,18.5458208 88.4327693,17.2107492 88.4327693,15.5645007 C88.4327693,13.9182521 89.7453925,12.5831805 91.3654528,12.5831805 C92.9848447,12.5831805 94.2974678,13.9182521 94.2974678,15.5645007" id="Fill-33" fill="#FFFFFF"></path>
                <path d="M91.3651186,13.461678 C90.2249276,13.461678 89.296601,14.4047209 89.296601,15.5645007 C89.296601,16.7242804 90.2249276,17.6673233 91.3651186,17.6673233 C92.5053095,17.6673233 93.4336362,16.7242804 93.4336362,15.5645007 C93.4336362,14.4047209 92.5053095,13.461678 91.3651186,13.461678 M91.3651186,19.4243183 C89.2718724,19.4243183 87.5682693,17.6931415 87.5682693,15.5645007 C87.5682693,13.4358598 89.2718724,11.7046831 91.3651186,11.7046831 C93.4583648,11.7046831 95.1619678,13.4358598 95.1619678,15.5645007 C95.1619678,17.6931415 93.4583648,19.4243183 91.3651186,19.4243183" id="Fill-35"></path>
                <path d="M99.2020266,1.77671034 C98.0618357,1.77671034 97.133509,2.71975327 97.133509,3.87953301 C97.133509,5.03931274 98.0618357,5.98235567 99.2020266,5.98235567 C100.342218,5.98235567 101.270544,5.03931274 101.270544,3.87953301 C101.270544,2.71975327 100.342218,1.77671034 99.2020266,1.77671034 M99.2020266,7.73935063 C97.1087804,7.73935063 95.4051774,6.00817384 95.4051774,3.87953301 C95.4051774,1.75089217 97.1087804,0.0197153853 99.2020266,0.0197153853 C101.295273,0.0197153853 102.998876,1.75089217 102.998876,3.87953301 C102.998876,6.00817384 101.295273,7.73935063 99.2020266,7.73935063" id="Fill-26"></path>
            </g>
        </g>
    </g>
</svg>