<?xml version="1.0" encoding="UTF-8"?>
<svg width="48px" height="48px" viewBox="0 0 48 48" version="1.1" xmlns="http://www.w3.org/2000/svg" xmlns:xlink="http://www.w3.org/1999/xlink">
    <!-- Generator: Sketch 45.2 (43514) - http://www.bohemiancoding.com/sketch -->
    <title>Setting</title>
    <desc>Created with Sketch.</desc>
    <defs></defs>
    <g id="Tweek-icons" stroke="none" stroke-width="1" fill="none" fill-rule="evenodd" stroke-linecap="round" stroke-linejoin="round">
        <g id="Setting" stroke="#FFFFFF" stroke-width="2">
            <path d="M29.1765218,30.6393864 C29.5052287,31.3050655 29.2280214,32.1112556 28.5597991,32.4386909 L27.6944799,32.8621314 C27.0262577,33.1895667 26.2175244,32.9142668 25.8894533,32.2466803 L25.1252258,30.6947007 C24.4913365,30.7773543 23.8555399,30.8199527 23.2159285,30.7760827 L22.64244,32.4533142 C22.4008372,33.1565053 21.6340665,33.5316253 20.9283323,33.2919299 L20.0165999,32.9816612 C19.3121373,32.7406943 18.9357457,31.9764667 19.1767126,31.2739115 L19.7374852,29.6380068 C19.2180394,29.2412697 18.7411919,28.8203723 18.3298315,28.3486112 L16.733982,29.1306411 C16.0651239,29.4574405 15.2563906,29.1821406 14.9276838,28.5151899 L14.5036074,27.6530497 C14.1755364,26.9867348 14.4508363,26.1805447 15.1203301,25.8524737 L16.6773961,25.0914251 C16.5941067,24.4594433 16.5515083,23.825554 16.5966499,23.1884858 L14.9130604,22.6156331 C14.2085978,22.3759378 13.8322062,21.6110744 14.0725373,20.9078834 L14.3840776,19.9986942 C14.6250446,19.2961389 15.3918153,18.9210189 16.0975495,19.1607142 L17.7391764,19.7195795 C18.1359135,19.202041 18.5580825,18.7271009 19.0311152,18.3170121 L18.2465421,16.7249774 C17.9191069,16.0586625 18.1950426,15.2524724 18.8632648,14.9256729 L19.728584,14.5015966 C20.3968063,14.1747971 21.2055396,14.4500971 21.5342465,15.1170477 L22.2978382,16.6696631 C22.9323632,16.5857379 23.567524,16.5444111 24.2077712,16.5889169 L24.7818956,14.9110496 C25.0222267,14.2072228 25.7896332,13.8327385 26.4940959,14.0724339 L27.4058282,14.3827026 C28.1115625,14.6236695 28.4873183,15.3878971 28.2469872,16.0898166 L27.6862146,17.7269929 C28.2050246,18.1230942 28.6818721,18.5439915 29.0925967,19.0157526 L30.6897178,18.2337228 C31.3585758,17.9069233 32.1666734,18.1822232 32.4947444,18.8485381 L32.9200923,19.7113141 C33.2481634,20.377629 32.9715919,21.1838191 32.3033696,21.5106185 L30.7456679,22.2729387 C30.8283215,22.9055563 30.8709198,23.538174 30.8270499,24.175878 L32.5093677,24.7493665 C33.215102,24.9884261 33.5914936,25.7532894 33.3505267,26.4564805 L33.0396221,27.3656696 C32.7980194,28.0688607 32.0312487,28.4433449 31.3261502,28.2036496 L29.6857949,27.6441486 C29.2877862,28.1623228 28.8656173,28.6372629 28.3919488,29.0467159 L29.1765218,30.6393864 Z M20.8028553,22.6372256 C20.2225918,24.2378842 21.0549935,26.0043324 22.6610798,26.5821287 C24.267166,27.1604184 26.0385484,26.3314707 26.6183184,24.7308121 C27.1985818,23.12966 26.3666735,21.3637053 24.7605873,20.7854156 C23.1549945,20.2071258 21.3826252,21.0360736 20.8028553,22.6372256 Z" id="Page-1"></path>
        </g>
    </g>
</svg>