<?xml version="1.0" encoding="utf-8"?>
<!-- Generator: Adobe Illustrator 19.2.1, SVG Export Plug-In . SVG Version: 6.00 Build 0)  -->
<svg version="1.1" xmlns="http://www.w3.org/2000/svg" xmlns:xlink="http://www.w3.org/1999/xlink" x="0px" y="0px"
	 viewBox="0 0 545.2 125" style="enable-background:new 0 0 545.2 125;" xml:space="preserve">
<style type="text/css">
	.st0{fill:#FFFFFF;}
	.st1{fill:#E0E0E0;}
	.st2{fill:#1A1A1A;}
	.st3{fill:#FFFFFF;stroke:#1A1A1A;stroke-width:2.4;stroke-miterlimit:10;}
	.st4{fill:#B3B3B3;}
	.st5{fill:#3FA9F5;}
	.st6{stroke:#FFFFFF;stroke-width:2;stroke-miterlimit:10;}
	.st7{fill:#BDCCD4;}
	.st8{fill:#353535;}
	.st9{fill:#FFFFFF;stroke:#353535;stroke-width:7.5971;stroke-miterlimit:10;}
	.st10{fill:#92BCFF;}
	.st11{fill:#FFFFFF;stroke:#353535;stroke-width:4.0997;stroke-miterlimit:10;}
	.st12{fill:#FFFFFF;stroke:#353535;stroke-width:5.1059;stroke-miterlimit:10;}
	.st13{fill:#FFFFFF;stroke:#353535;stroke-width:5.3544;stroke-miterlimit:10;}
	.st14{fill:#494949;}
	.st15{fill:#FFB32C;}
	.st16{fill:#FFFFFF;stroke:#353535;stroke-width:4.9368;stroke-miterlimit:10;}
	.st17{fill:#FFFFFF;stroke:#353535;stroke-width:3.5718;stroke-miterlimit:10;}
	.st18{fill:#EDA618;}
	.st19{fill:#FFFFFF;stroke:#353535;stroke-width:3.6298;stroke-miterlimit:10;}
	.st20{fill:#FFFFFF;stroke:#353535;stroke-width:7.0835;stroke-miterlimit:10;}
	.st21{fill:#5D5D5D;}
	.st22{opacity:0.51;fill:#A0A0A0;}
	.st23{fill:none;stroke:#353535;stroke-width:21.2856;stroke-miterlimit:10;}
	.st24{fill:none;stroke:#353535;stroke-width:8;stroke-linecap:round;stroke-miterlimit:10;}
	.st25{fill:#00AEEF;}
	.st26{fill:#FFFFFF;stroke:#353535;stroke-width:10.9183;stroke-miterlimit:10;}
	.st27{fill:#97D7FF;}
</style>
<g id="Layer_1">
	<g>
		<path class="st8" d="M87,5.3H11.9C6,5.3,1.5,9.7,1.5,15.6v1.7c0,5.9,4.5,10.9,10.4,10.9h26.8l-1.1,82c0,5.4,4.9,9.7,10.9,9.7v0
			c6,0,11.1-4.3,11.1-9.7l1.1-82H87c5.9,0,10.5-5,10.5-10.9v-1.7C97.5,9.7,92.9,5.3,87,5.3z"/>
		<path class="st8" d="M332.3,28.3c6.4,0,11.2-5.2,11.2-11.6v-0.1c0-6.4-4.8-11.4-11.2-11.4h-64.2c-0.5,0-1,0-1.5,0
			c-5.7,0.3-10.2,4.9-10.2,10.7v93.2c0,5.7,4.5,10.5,10.2,10.9c0.5,0.1,1,0.2,1.5,0.2h64.2c6.4,0,11.2-5.4,11.2-11.8v-0.1
			c0-6.4-4.8-11.2-11.2-11.2h-52.8v-23h27.4c6.4,0,11.6-5.2,11.6-11.6v0.1c0-6.4-5.3-11.5-11.6-11.5h-27.4v-23H332.3z"/>
		<g>
			<path class="st8" d="M426,120h-64.2c-6.4,0-11.5-5.2-11.5-11.5v-0.1c0-6.4,5.2-11.5,11.5-11.5H426c6.4,0,11.5,5.2,11.5,11.5v0.1
				C437.5,114.9,432.4,120,426,120z"/>
			<path class="st8" d="M423.1,74.2h-61.2c-6.4,0-11.6-5.2-11.6-11.6v0c0-6.4,5.2-11.6,11.6-11.6h61.2c6.4,0,11.6,5.2,11.6,11.6v0
				C434.6,69,429.5,74.2,423.1,74.2z"/>
			<path class="st25" d="M377.6,73.7h-16.8c-6.4,0-11.5-5.2-11.5-11.5v-0.1c0-6.4,5.2-11.5,11.5-11.5h16.8"/>
			<path class="st8" d="M426,28.2h-64.2c-6.4,0-11.5-5.2-11.5-11.5v-0.1c0-6.4,5.2-11.5,11.5-11.5H426c6.4,0,11.5,5.2,11.5,11.5v0.1
				C437.5,23,432.4,28.2,426,28.2z"/>
			<path class="st8" d="M426,28.2h-64.2c-6.4,0-11.5-5.2-11.5-11.5v-0.1c0-6.4,5.2-11.5,11.5-11.5H426c6.4,0,11.5,5.2,11.5,11.5v0.1
				C437.5,23,432.4,28.2,426,28.2z"/>
			<path class="st25" d="M405.8,28.2h-44c-6.4,0-11.5-5.2-11.5-11.5v-0.1c0-6.4,5.2-11.5,11.5-11.5h44"/>
			<path class="st25" d="M405.8,120h-44c-6.4,0-11.5-5.2-11.5-11.5v-0.1c0-6.4,5.2-11.5,11.5-11.5h44"/>
		</g>
		<path class="st8" d="M246.3,81.5c0-0.1,0.2-0.2,0.2-0.2V81c0-0.5-0.3-0.7-0.3-1.7h0.3V16.6c0-5.7-5-10.4-10.8-10.4h-2.4
			c-5.7,0-10.9,4.6-10.9,10.4v63.5c0,8.9-7.8,15.9-17.2,15.9c-9.7,0-17.1-7.8-17.1-16.8h0.4V15.4c0-5.7-5.1-10.2-10.8-10.2h-2.4
			c-5.7,0-10.8,4.5-10.8,10.2v63.8h0.2c0,9-7.7,16.7-17.4,16.7s-17.7-7.7-17.7-16.7h-0.2V16.6c0-5.7-4.2-10.4-10-10.4h-2.4
			c-5.7,0-10.7,4.6-10.7,10.4v62.8l0,0c0,0,0,0,0,0v1.8c0,0.6,0.2,1.3,0.3,1.9c1.9,20.3,19.4,36.2,40.5,36.2
			c11.4,0,21.7-4.6,29.1-12c7.4,7.4,17.7,12,29.1,12c21.3,0,38.9-16.2,40.5-36.7c0-0.4,0.2-0.7,0.2-1.1
			C246.2,81.5,246.3,81.5,246.3,81.5z"/>
		<path class="st8" d="M503.4,51.9l34.7-26.3c5.5-4,6.3-11.3,1.9-16.2l0-0.1c-4.4-4.9-12.5-5.6-18-1.6l-49.4,37.5l0-30.3
			c0-5.4-5.7-9.8-12.8-9.8l0,0c-7.1,0-12.8,4.4-12.8,9.8l0,95.3c0,5.4,5.7,9.8,12.8,9.8l0,0c7.1,0,12.8-4.4,12.8-9.8l0-34.9l11-8.4
			l33.9,48.3c3.8,5.4,11.7,7,17.6,3.6l0.1,0c6-3.4,7.7-10.5,4-15.9L503.4,51.9z"/>
		<g>
			<circle class="st0" cx="406.6" cy="16.2" r="12"/>
			<path class="st8" d="M406.6,31.7c-8.6,0-15.5-7-15.5-15.5s7-15.5,15.5-15.5s15.5,7,15.5,15.5S415.1,31.7,406.6,31.7z M406.6,7.8
				c-4.7,0-8.5,3.8-8.5,8.5s3.8,8.5,8.5,8.5s8.5-3.8,8.5-8.5S411.3,7.8,406.6,7.8z"/>
		</g>
		<g>
			<circle class="st0" cx="406.6" cy="108.5" r="12"/>
			<path class="st8" d="M406.6,124c-8.6,0-15.5-7-15.5-15.5s7-15.5,15.5-15.5s15.5,7,15.5,15.5S415.1,124,406.6,124z M406.6,100
				c-4.7,0-8.5,3.8-8.5,8.5s3.8,8.5,8.5,8.5s8.5-3.8,8.5-8.5S411.3,100,406.6,100z"/>
		</g>
		<g>
			<circle class="st0" cx="374.6" cy="63.2" r="12"/>
			<path class="st8" d="M374.6,78.7c-8.6,0-15.5-7-15.5-15.5s7-15.5,15.5-15.5s15.5,7,15.5,15.5S383.1,78.7,374.6,78.7z M374.6,54.7
				c-4.7,0-8.5,3.8-8.5,8.5s3.8,8.5,8.5,8.5s8.5-3.8,8.5-8.5S379.2,54.7,374.6,54.7z"/>
		</g>
	</g>
</g>
<g id="Layer_2">
</g>
</svg>
