<?xml version="1.0" encoding="UTF-8"?>
<svg width="48px" height="48px" viewBox="0 0 48 48" version="1.1" xmlns="http://www.w3.org/2000/svg" xmlns:xlink="http://www.w3.org/1999/xlink">
    <g id="Tweek-icons" stroke="none" stroke-width="1" fill="none" fill-rule="evenodd">
        <g id="Link-icon" fill="#515151">
            <g id="Group" transform="translate(25.000000, 24.500000) rotate(-315.000000) translate(-25.000000, -24.500000) translate(18.000000, 9.000000)">
                <path d="M11.0023,21.717 C11.0023,21.795 11.0003,21.944 11.0003,22.059 L11.0003,23.612 C11.0003,26.039 8.9273,28.014 6.5003,28.014 C4.0723,28.014 2.0003,26.039 2.0003,23.612 L2.0003,14.513 C2.0003,12.086 4.1043,10.111 6.5313,10.111 C7.8733,10.111 9.0003,10.728 10.0003,11.677 L10.0003,8.931 C9.0003,8.344 7.8083,8 6.5873,8 C2.9963,8 0.0003,10.922 0.0003,14.513 L0.0003,23.612 C0.0003,27.203 2.9083,30.125 6.5003,30.125 C10.0913,30.125 13.0003,27.203 13.0003,23.612 L13.0003,22.605 L13.0003,21.811 L13.0003,19.063 C12.4233,20.434 11.8003,21.2 11.0023,21.717" id="Fill-1"></path>
                <path d="M1.9977,8.408 C1.9977,8.33 1.9997,8.181 1.9997,8.066 L1.9997,6.513 C1.9997,4.086 4.0727,2.111 6.4997,2.111 C8.9277,2.111 10.9997,4.086 10.9997,6.513 L10.9997,15.612 C10.9997,18.039 8.8957,20.014 6.4687,20.014 C5.1267,20.014 3.9997,19.397 2.9997,18.448 L2.9997,21.194 C3.9997,21.781 5.1917,22.125 6.4127,22.125 C10.0037,22.125 12.9997,19.203 12.9997,15.612 L12.9997,6.513 C12.9997,2.922 10.0917,0 6.4997,0 C2.9087,0 -0.0003,2.922 -0.0003,6.513 L-0.0003,7.52 L-0.0003,8.314 L-0.0003,11.062 C0.5767,9.691 1.1997,8.925 1.9977,8.408" id="Fill-4"></path>
            </g>
        </g>
    </g>
</svg>