<?xml version="1.0" encoding="UTF-8"?>
<svg width="48px" height="48px" stroke="#515151" stroke-width="2" fill="none" fill-rule="evenodd" stroke-linecap="round" stroke-linejoin="round" viewBox="0 0 48 48" version="1.1" xmlns="http://www.w3.org/2000/svg">
    <g transform="translate(13.000000, 14.000000)">
        <path d="M0,3.9262 L22.054,3.9262" />
        <path d="M6.9651,3.0269 L6.9651,2.0759 C6.9651,0.9339 7.7841,-0.0001 8.7841,-0.0001 L13.2691,-0.0001 C14.2701,-0.0001 15.0881,0.9339 15.0881,2.0759 L15.0881,3.0269" />
        <path d="M18.6013,3.9979 L18.6013,16.5729 C18.6013,18.5969 17.0743,20.2529 15.2083,20.2529 L6.8453,20.2529 C4.9793,20.2529 3.4523,18.5969 3.4523,16.5729 L3.4523,3.9979" />
        <path d="M7.2694,7.1483 L7.2694,15.9983" />
        <path d="M14.7841,7.1483 L14.7841,15.9983" />
        <path d="M11.0268,7.1483 L11.0268,15.9983" />
    </g>
</svg>