<?xml version="1.0" encoding="utf-8"?>
<!-- Generator: Adobe Illustrator 19.2.1, SVG Export Plug-In . SVG Version: 6.00 Build 0)  -->
<svg version="1.1" id="Layer_1" xmlns="http://www.w3.org/2000/svg" xmlns:xlink="http://www.w3.org/1999/xlink" x="0px" y="0px"
	 viewBox="0 0 19 13" style="enable-background:new 0 0 19 13;" xml:space="preserve">
<style type="text/css">
	.st0{fill:none;stroke:#d8d8d8;stroke-width:1.3184;stroke-miterlimit:10;}
</style>
<g>
	<path class="st0" d="M4.7,12.4h12.6c0.6,0,1-0.4,1-1V4.3c0-0.6-0.4-1-1-1H9.1l0-1.6c0-0.6-0.4-1.1-1-1.1H4.7c-0.6,0-1,0.4-1,1v1.6
		v3.1"/>
	<path class="st0" d="M18.3,11.4c0,0.6-0.4,1-1,1H4.7c-0.1,0-0.4-0.2-0.7-0.6c-1-1.4-3.3-4.4-3.3-4.4c-0.2-0.4,0-0.9,0.5-0.9l12.3,0
		c0.2,0,0.4,0.1,0.5,0.2L18.3,11.4z"/>
	<line class="st0" x1="3.7" y1="3.3" x2="14.1" y2="3.3"/>
</g>
</svg>
